<mxfile host="app.diagrams.net" modified="2024-05-23T02:13:26.050Z" agent="Mozilla/5.0 (Windows NT 10.0; Win64; x64) AppleWebKit/537.36 (KHTML, like Gecko) Chrome/124.0.0.0 Safari/537.36" version="24.4.3" etag="QjwcE41r6N23ccp6xASY" type="github">
  <diagram name="Page-1" id="L5C-Kd8mXanK8fm4R7bU">
    <mxGraphModel>
      <root>
        <mxCell id="0" />
        <mxCell id="1" parent="0" />
      </root>
    </mxGraphModel>
  </diagram>
</mxfile>
